<?xml version="1.0" encoding="UTF-8"?>
<svg width="90px" height="90px" viewBox="0 0 90 90" version="1.1" xmlns="http://www.w3.org/2000/svg" xmlns:xlink="http://www.w3.org/1999/xlink">
    <title>Translate</title>
    <desc>Translate</desc>
    <g id="icon" fill-rule="nonzero">
        <path d="M29.326,37.159 C25.642,40.203 20.805,43.161 14.424,45.692 L12.952,41.979 C18.666,39.713 23.009,37.095 26.329,34.417 C22.288,30.313 20.126,26.232 18.981,22.98 L23.249,22.98 C24.338,25.549 26.197,28.622 29.311,31.746 C34.845,26.177 36.389,20.767 36.818,18.099 L11.69,18.099 L11.69,13.883 L26.888,13.883 L26.888,9.113 L31.104,9.113 L31.104,13.883 L46.302,13.883 L46.302,18.099 L40.856,18.099 C40.473,21.205 38.874,27.788 32.317,34.436 C33.027,35.005 33.794,35.571 34.601,36.132 C35.406,35.057 36.679,34.351 38.125,34.351 L57.282,34.351 C57.643,32.539 57.84,30.667 57.84,28.748 C57.84,13.033 45.1,0.292 29.384,0.292 C13.669,0.292 0.928,13.033 0.928,28.748 C0.928,44.463 13.669,57.203 29.384,57.203 C30.859,57.203 32.296,57.057 33.711,56.842 L33.711,40.352 C32.095,39.308 30.633,38.239 29.326,37.159 Z" id="Shape" fill="#868686"></path>
        <polygon id="Shape" fill="#979797" points="62.901 50.926 57.524 65.726 68.279 65.726 62.991 50.926"></polygon>
        <path d="M85.077,37.124 L40.479,37.124 C38.273,37.124 36.485,38.912 36.485,41.118 L36.485,85.716 C36.485,87.921 38.273,89.71 40.479,89.71 L85.077,89.71 C87.282,89.71 89.07,87.921 89.07,85.716 L89.07,41.117 C89.07,38.912 87.282,37.124 85.077,37.124 Z M73.077,78.835 L69.614,69.28 L56.191,69.28 L52.634,78.835 L48.324,78.835 L60.68,47.106 L65.346,47.106 L77.744,78.835 L73.077,78.835 L73.077,78.835 Z" id="Shape" fill="#979797"></path>
    </g>
</svg>